name ./resultDataOpenSim/trcMotMarkerGrf/sub10/grf-05-03.mot
datacolumns 19
datarows 25
range 1.02400000 1.12000000
endheader

                time	     ground_force_vx	     ground_force_vy	     ground_force_vz	     ground_force_px	     ground_force_py	     ground_force_pz	   l_ground_force_vx	   l_ground_force_vy	   l_ground_force_vz	   l_ground_force_px	   l_ground_force_py	   l_ground_force_pz	     ground_torque_x	     ground_torque_y	     ground_torque_z	   l_ground_torque_x	   l_ground_torque_y	   l_ground_torque_z	
          1.02400000	          0.00000000	          0.00000000	          0.00000000	          0.00000000	          0.00000000	          0.00000000	          7.32106314	        210.02939851	          6.86102666	          0.03002403	         -0.10000000	         -0.13129589	          0.00000000	          0.00000000	          0.00000000	          0.00000000	         -0.36912505	          0.00000000	
          1.02800000	          0.00000000	          0.00000000	          0.00000000	          0.00000000	          0.00000000	          0.00000000	          9.98602436	        214.11257739	          7.58813157	          0.02966361	         -0.10000000	         -0.13174265	          0.00000000	          0.00000000	          0.00000000	          0.00000000	         -0.42890305	          0.00000000	
          1.03200000	          0.00000000	          0.00000000	          0.00000000	          0.00000000	          0.00000000	          0.00000000	         12.69365846	        219.80622267	          8.32149677	          0.02923840	         -0.10000000	         -0.13227749	          0.00000000	          0.00000000	          0.00000000	          0.00000000	         -0.49726003	          0.00000000	
          1.03600000	          0.00000000	          0.00000000	          0.00000000	          0.00000000	          0.00000000	          0.00000000	         15.46078791	        227.27496369	          9.00690004	          0.02879732	         -0.10000000	         -0.13279098	          0.00000000	          0.00000000	          0.00000000	          0.00000000	         -0.57742657	          0.00000000	
          1.04000000	          0.00000000	          0.00000000	          0.00000000	          0.00000000	          0.00000000	          0.00000000	         18.30457643	        236.65470448	          9.64979821	          0.02834929	         -0.10000000	         -0.13320796	          0.00000000	          0.00000000	          0.00000000	          0.00000000	         -0.67185012	          0.00000000	
          1.04400000	          0.00000000	          0.00000000	          0.00000000	          0.00000000	          0.00000000	          0.00000000	         21.22165753	        248.02894959	         10.29093607	          0.02791451	         -0.10000000	         -0.13350107	          0.00000000	          0.00000000	          0.00000000	          0.00000000	         -0.78181860	          0.00000000	
          1.04800000	          0.00000000	          0.00000000	          0.00000000	          0.00000000	          0.00000000	          0.00000000	         24.19887585	        261.43129699	         10.96000983	          0.02754573	         -0.10000000	         -0.13368187	          0.00000000	          0.00000000	          0.00000000	          0.00000000	         -0.90744322	          0.00000000	
          1.05200000	          0.00000000	          0.00000000	          0.00000000	          0.00000000	          0.00000000	          0.00000000	         27.23755353	        276.85436626	         11.65612092	          0.02730262	         -0.10000000	         -0.13377205	          0.00000000	          0.00000000	          0.00000000	          0.00000000	         -1.04795838	          0.00000000	
          1.05600000	          0.00000000	          0.00000000	          0.00000000	          0.00000000	          0.00000000	          0.00000000	         30.35361399	        294.24445664	         12.36858965	          0.02720303	         -0.10000000	         -0.13378193	          0.00000000	          0.00000000	          0.00000000	          0.00000000	         -1.20223437	          0.00000000	
          1.06000000	          0.00000000	          0.00000000	          0.00000000	          0.00000000	          0.00000000	          0.00000000	         33.55591921	        313.50473399	         13.10269158	          0.02719964	         -0.10000000	         -0.13371977	          0.00000000	          0.00000000	          0.00000000	          0.00000000	         -1.36933887	          0.00000000	
          1.06400000	          0.00000000	          0.00000000	          0.00000000	          0.00000000	          0.00000000	          0.00000000	         36.82985025	        334.52185668	         13.87341901	          0.02720813	         -0.10000000	         -0.13361152	          0.00000000	          0.00000000	          0.00000000	          0.00000000	         -1.54896330	          0.00000000	
          1.06800000	          0.00000000	          0.00000000	          0.00000000	          0.00000000	          0.00000000	          0.00000000	         40.14368867	        357.19970843	         14.68563862	          0.02716279	         -0.10000000	         -0.13350196	          0.00000000	          0.00000000	          0.00000000	          0.00000000	         -1.74160047	          0.00000000	
          1.07200000	          0.00000000	          0.00000000	          0.00000000	          0.00000000	          0.00000000	          0.00000000	         43.46870681	        381.49339941	         15.53331874	          0.02706566	         -0.10000000	         -0.13342617	          0.00000000	          0.00000000	          0.00000000	          0.00000000	         -1.94851895	          0.00000000	
          1.07600000	          0.00000000	          0.00000000	          0.00000000	          0.00000000	          0.00000000	          0.00000000	         46.79975518	        407.42030404	         16.39944598	          0.02697294	         -0.10000000	         -0.13337237	          0.00000000	          0.00000000	          0.00000000	          0.00000000	         -2.17166936	          0.00000000	
          1.08000000	          0.00000000	          0.00000000	          0.00000000	          0.00000000	          0.00000000	          0.00000000	         50.16839789	        435.00472813	         17.23744692	          0.02693264	         -0.10000000	         -0.13328468	          0.00000000	          0.00000000	          0.00000000	          0.00000000	         -2.41356729	          0.00000000	
          1.08400000	          0.00000000	          0.00000000	          0.00000000	          0.00000000	          0.00000000	          0.00000000	         53.63694713	        464.17973059	         17.96946828	          0.02692811	         -0.10000000	         -0.13311865	          0.00000000	          0.00000000	          0.00000000	          0.00000000	         -2.67705807	          0.00000000	
          1.08800000	          0.00000000	          0.00000000	          0.00000000	          0.00000000	          0.00000000	          0.00000000	         57.27890107	        494.75254990	         18.51999655	          0.02691249	         -0.10000000	         -0.13286444	          0.00000000	          0.00000000	          0.00000000	          0.00000000	         -2.96486608	          0.00000000	
          1.09200000	          0.00000000	          0.00000000	          0.00000000	          0.00000000	          0.00000000	          0.00000000	         61.16863041	        526.47757439	         18.84186032	          0.02689429	         -0.10000000	         -0.13251647	          0.00000000	          0.00000000	          0.00000000	          0.00000000	         -3.27896780	          0.00000000	
          1.09600000	          0.00000000	          0.00000000	          0.00000000	          0.00000000	          0.00000000	          0.00000000	         65.38434579	        559.12846621	         18.90745294	          0.02690096	         -0.10000000	         -0.13208934	          0.00000000	          0.00000000	          0.00000000	          0.00000000	         -3.62000012	          0.00000000	
          1.10000000	          0.00000000	          0.00000000	          0.00000000	          0.00000000	          0.00000000	          0.00000000	         70.00150890	        592.47118149	         18.69476614	          0.02693778	         -0.10000000	         -0.13160267	          0.00000000	          0.00000000	          0.00000000	          0.00000000	         -3.98698111	          0.00000000	
          1.10400000	          0.00000000	          0.00000000	          0.00000000	          0.00000000	          0.00000000	          0.00000000	         75.07468526	        626.20559168	         18.19271493	          0.02703756	         -0.10000000	         -0.13105690	          0.00000000	          0.00000000	          0.00000000	          0.00000000	         -4.37745061	          0.00000000	
          1.10800000	          0.00000000	          0.00000000	          0.00000000	          0.00000000	          0.00000000	          0.00000000	         80.63420167	        659.97951618	         17.40590756	          0.02722280	         -0.10000000	         -0.13046353	          0.00000000	          0.00000000	          0.00000000	          0.00000000	         -4.78786311	          0.00000000	
          1.11200000	          0.00000000	          0.00000000	          0.00000000	          0.00000000	          0.00000000	          0.00000000	         86.69452309	        693.43714686	         16.34404673	          0.02747377	         -0.10000000	         -0.12983098	          0.00000000	          0.00000000	          0.00000000	          0.00000000	         -5.21397279	          0.00000000	
          1.11600000	          0.00000000	          0.00000000	          0.00000000	          0.00000000	          0.00000000	          0.00000000	         93.26112425	        726.23002611	         15.02003984	          0.02777430	         -0.10000000	         -0.12916291	          0.00000000	          0.00000000	          0.00000000	          0.00000000	         -5.65105256	          0.00000000	
          1.12000000	          0.00000000	          0.00000000	          0.00000000	          0.00000000	          0.00000000	          0.00000000	        100.34128610	        758.03725849	         13.46590498	          0.02811025	         -0.10000000	         -0.12846960	          0.00000000	          0.00000000	          0.00000000	          0.00000000	         -6.09391878	          0.00000000	
